<svg xmlns="http://www.w3.org/2000/svg" xmlns:xlink="http://www.w3.org/1999/xlink" id="Layer_1" width="42" height="42" x="0" y="0" baseProfile="tiny" version="1.1" viewBox="0 0 42 42" xml:space="preserve"><g><path fill="#AAA" fill-rule="evenodd" d="M21,1c1.081,0,5.141,12.315,6.201,13.126s13.461,1.053,13.791,2.137 c0.34,1.087-9.561,8.938-9.961,10.252c-0.409,1.307,3.202,13.769,2.331,14.442c-0.879,0.673-11.05-6.79-12.361-6.79 c-1.311,0-11.481,7.463-12.36,6.79c-0.871-0.674,2.739-13.136,2.329-14.442c-0.399-1.313-10.3-9.165-9.96-10.252 c0.33-1.084,12.731-1.326,13.791-2.137S19.91,1,21,1z"/></g></svg>